<?xml version="1.0" encoding="UTF-8"?>
<svg xmlns="http://www.w3.org/2000/svg" viewBox="0 0 186.43 55.67">
  <defs>
    <style>.cls-1,.cls-2{fill:#14c464;}.cls-2{font-size:18.24px;font-family:Kanit-Medium, Kanit;font-weight:500;}.cls-3{letter-spacing:-0.03em;}.cls-4{letter-spacing:-0.08em;}</style>
  </defs>
  <g id="Layer_2" data-name="Layer 2">
    <g id="Layer_1-2" data-name="Layer 1">
      <rect class="cls-1" x="69.93" y="1.75" width="2.75" height="49.25" rx="1.13"></rect>
      <text class="cls-2" transform="translate(80.3 14.99)">NADUPPUNI <tspan x="0" y="17.03">INDU</tspan><tspan class="cls-3" x="41.13" y="17.03">S</tspan><tspan x="50.71" y="17.03">TRIES </tspan><tspan class="cls-4" x="0" y="34.05">P</tspan><tspan x="9.45" y="34.05">ARK</tspan></text>
      <path class="cls-1" d="M7.41,51V42.13H9L13.22,48V42.13h1.86V51H13.47l-4.2-5.91V51Z"></path>
      <path class="cls-1" d="M16.65,51V42.13h1.86V51Z"></path>
      <path class="cls-1" d="M20.08,51V42.13h4.16a3.38,3.38,0,0,1,1.71.4,2.56,2.56,0,0,1,1,1.09,3.58,3.58,0,0,1,.33,1.57,3.21,3.21,0,0,1-.38,1.58,2.63,2.63,0,0,1-1.07,1.07,3.46,3.46,0,0,1-1.65.38H21.94V51Zm1.86-4.25h1.85A1.6,1.6,0,0,0,25,46.33a1.58,1.58,0,0,0,.41-1.14A1.65,1.65,0,0,0,25,44a1.53,1.53,0,0,0-1.16-.4H21.94Z"></path>
      <path class="cls-1" d="M26.93,51l3.39-8.87h2L35.73,51H33.8L33,48.87H29.7L28.88,51ZM30,47.43h2.71l-1.36-3.56Z"></path>
      <path class="cls-1" d="M37,51V42.13h4.25a2.82,2.82,0,0,1,2.24.81,3.14,3.14,0,0,1,.72,2.17,2.57,2.57,0,0,1-.46,1.54,2.64,2.64,0,0,1-1.3.94,1.78,1.78,0,0,1,.35.38,3.13,3.13,0,0,1,.27.55L44.17,51H42.24l-1-2.38a1.08,1.08,0,0,0-.31-.43,1,1,0,0,0-.55-.12H38.88V51Zm1.85-4.47H40.8a1.78,1.78,0,0,0,1.14-.33,1.28,1.28,0,0,0,.41-1.09A1.49,1.49,0,0,0,42,44a1.52,1.52,0,0,0-1.09-.34h-2Z"></path>
      <path class="cls-1" d="M45.53,51V42.13h1.86v3.76l3.42-3.76h2.13l-3.21,3.6L53.11,51h-2l-2.54-4.09-1.19,1.28V51Z"></path>
      <path class="cls-1" d="M44.2,31.54l14.65-6.35-2.21-5.1-14.26,6.2,11-11-3.91-3.92L37.57,23.27h0L41,14.49l-5.16-2-3,7.57V5.1a.59.59,0,0,0-.6-.58H27.93a.58.58,0,0,0-.58.58V21.31L21.65,8.19l-1-2.29L15.59,8.1l6.19,14.28-3.71-3.72L16.16,20.6l-4-4-2,2,8.58,8.57h0L3.11,21l-2,5.14,13.65,5.39H0v6H60.24v-6Z"></path>
    </g>
  </g>
</svg>
